<?xml version="1.0" encoding="UTF-8" standalone="no"?><!DOCTYPE svg PUBLIC "-//W3C//DTD SVG 1.1//EN" "http://www.w3.org/Graphics/SVG/1.1/DTD/svg11.dtd"><svg width="100%" height="100%" viewBox="0 0 100 100" version="1.1" xmlns="http://www.w3.org/2000/svg" xmlns:xlink="http://www.w3.org/1999/xlink" xml:space="preserve" style="fill-rule:evenodd;clip-rule:evenodd;stroke-linejoin:round;stroke-miterlimit:1.41421;"><g><g id="Twitch_IntegrationGuidelines"><g><path id="path2997" d="M72.692,48.663l-7.157,7.667l-11.243,0l-6.133,6.569l0,-6.569l-9.199,0l0,-31.755l33.732,0l0,24.088Zm-37.822,-28.468l-2.044,8.76l0,39.419l9.2,0l0,5.476l5.109,0l5.113,-5.476l8.176,0l16.354,-17.518l0,-30.661l-41.908,0l0,0Z" style="fill:#1a171b;"/><path id="path2999" d="M48.925,46.168l4.089,0l0,-13.142l-4.089,0l0,13.142Zm11.243,0l4.089,0l0,-13.142l-4.089,0l0,13.142Z" style="fill:#1a171b;"/></g></g><g><path d="M66.726,82.47l-0.229,1.04l-0.129,0.027c-0.636,-0.529 -1.367,-0.796 -2.194,-0.796c-0.902,0 -1.594,0.311 -2.077,0.932c-0.484,0.624 -0.727,1.532 -0.727,2.726c0,1.206 0.243,2.126 0.727,2.763c0.483,0.637 1.169,0.953 2.052,0.953c0.873,0 1.666,-0.289 2.377,-0.866l0.141,0.073l-0.1,1.081c-0.824,0.456 -1.667,0.684 -2.518,0.684c-1.226,0 -2.172,-0.397 -2.847,-1.187c-0.675,-0.795 -1.01,-1.926 -1.01,-3.395c0,-1.51 0.351,-2.672 1.05,-3.488c0.703,-0.816 1.702,-1.223 2.993,-1.223c0.957,-0.007 1.789,0.218 2.491,0.676Z" style="fill:#1a171b;fill-rule:nonzero;"/><path d="M75.951,91.004l-1.156,0l0.084,-2.75l-0.013,-1.364l-2.561,-0.044l-2.307,0.044l-0.013,1.266l0.054,2.848l-1.151,0l0.07,-2.75l-0.07,-6.377l1.166,0l-0.04,4.016l2.388,0.04l2.451,-0.04l-0.06,-4.016l1.17,0l-0.057,6.279l0.045,2.848Z" style="fill:#1a171b;fill-rule:nonzero;"/><path d="M44.109,91.118l-1.825,-5.43l-0.102,0l-1.926,5.43l-1.211,0l-2.977,-9.356l1.168,0l0.161,0.904l2.276,7.152l0.102,0l2.015,-5.692l-0.788,-2.364l1.196,0l0.22,1.006l2.306,7.05l0.089,0l2.539,-7.093l0.22,-0.963l1.109,0l-3.357,9.356l-1.215,0Z" style="fill:#1a171b;fill-rule:nonzero;"/><path d="M51.194,91.118l-1.183,0l0.074,-2.817l-0.074,-6.539l1.198,0l-0.073,6.438l0.058,2.918Z" style="fill:#1a171b;fill-rule:nonzero;"/><path d="M59.567,82.784l-1.633,-0.087l-0.949,0l-0.044,5.503l0.044,2.917l-1.183,0l0.089,-2.816l-0.073,-5.604l-0.949,0l-1.665,0.087l-0.073,-0.116l0.088,-0.905l6.349,0l0.088,0.116l-0.089,0.905Z" style="fill:#1a171b;fill-rule:nonzero;"/><path d="M35.458,82.784l-1.633,-0.087l-0.948,0l-0.045,5.503l0.045,2.917l-1.183,0l0.088,-2.816l-0.073,-5.604l-0.949,0l-1.664,0.087l-0.073,-0.116l0.087,-0.905l6.349,0l0.089,0.116l-0.09,0.905Z" style="fill:#1a171b;fill-rule:nonzero;"/></g></g></svg>