<?xml version="1.0" encoding="utf-8"?>
<!-- Generator: Adobe Illustrator 15.1.0, SVG Export Plug-In . SVG Version: 6.00 Build 0)  -->
<!DOCTYPE svg PUBLIC "-//W3C//DTD SVG 1.1//EN" "http://www.w3.org/Graphics/SVG/1.1/DTD/svg11.dtd">
<svg version="1.1" id="Ebene_1" xmlns="http://www.w3.org/2000/svg" xmlns:xlink="http://www.w3.org/1999/xlink" x="0px" y="0px"
	 width="100px" height="100px" viewBox="0 0 100 100" enable-background="new 0 0 100 100" xml:space="preserve">
<g>
	<g>
		<path d="M28.69,59.141l-1.904-0.102h-1.104l-0.052,6.408l0.052,3.4h-1.377l0.102-3.281l-0.085-6.527h-1.104l-1.938,0.102
			l-0.085-0.136l0.102-1.055h7.396l0.102,0.137L28.69,59.141z"/>
		<path d="M39.553,68.848l-2.125-6.324H37.31l-2.244,6.324h-1.411L30.187,57.95h1.359l0.188,1.055l2.651,8.33h0.119l2.347-6.63
			l-0.919-2.755h1.395l0.255,1.174l2.687,8.211h0.102l2.958-8.263l0.255-1.122h1.292l-3.91,10.897H39.553z"/>
		<path d="M48.648,68.848h-1.377l0.085-3.281l-0.085-7.616h1.394l-0.085,7.497L48.648,68.848z"/>
		<path d="M58.797,59.141l-1.904-0.102h-1.104l-0.052,6.408l0.052,3.4h-1.377l0.102-3.281l-0.085-6.527h-1.104l-1.938,0.102
			L51.3,59.005l0.102-1.055h7.396l0.102,0.137L58.797,59.141z"/>
		<path d="M67.705,58.682l-0.272,1.241l-0.152,0.034c-0.76-0.635-1.633-0.952-2.618-0.952c-1.077,0-1.904,0.371-2.482,1.113
			s-0.867,1.827-0.867,3.256c0,1.439,0.289,2.538,0.867,3.298c0.578,0.759,1.395,1.139,2.448,1.139c1.043,0,1.989-0.346,2.839-1.037
			l0.17,0.085l-0.119,1.292c-0.985,0.544-1.988,0.816-3.009,0.816c-1.462,0-2.596-0.474-3.4-1.42s-1.206-2.298-1.206-4.055
			c0-1.802,0.419-3.189,1.258-4.164c0.838-0.975,2.028-1.463,3.569-1.463C65.874,57.865,66.866,58.138,67.705,58.682z"/>
		<path d="M78.789,68.848h-1.377l0.103-3.281l-0.018-1.632l-3.06-0.051l-2.754,0.051l-0.018,1.513l0.068,3.4h-1.377l0.085-3.281
			l-0.085-7.616h1.394L71.7,62.745l2.856,0.051l2.924-0.051l-0.068-4.795h1.395l-0.068,7.497L78.789,68.848z"/>
	</g>
	<g>
		<path d="M61.114,20.979H38.885c-1.36,0-3.384,0.9-3.384,3.383v19.105c0,1.36,0.901,3.384,3.384,3.384h5.053l-0.008,4.782v0.12
			l4.922-4.902H57.5l6.984-6.986l0.015-15.503C64.499,23.002,63.598,20.979,61.114,20.979z M45.382,48.217l-0.023-3.061
			l-6.474-0.006c-1.535,0-1.676-1.289-1.683-1.683V24.362c0-1.536,1.287-1.676,1.683-1.682h22.229c1.538,0,1.678,1.288,1.684,1.682
			v14.766l-6.017,6.028h-8.406L45.382,48.217z"/>
		<path d="M56.206,39.046c0.553,0,1.003-0.45,1.003-1.003v-8.252c0-0.553-0.45-1.003-1.003-1.003c-0.554,0-1.004,0.45-1.004,1.003
			v8.252C55.202,38.596,55.652,39.046,56.206,39.046z"/>
		<path d="M48.6,29.791c0-0.553-0.45-1.003-1.003-1.003c-0.554,0-1.003,0.45-1.003,1.003v8.252c0,0.553,0.449,1.003,1.003,1.003
			c0.553,0,1.003-0.45,1.003-1.003V29.791z"/>
	</g>
</g>
</svg>
